<?xml version="1.0" standalone="no"?>
<!DOCTYPE svg PUBLIC "-//W3C//DTD SVG 20010904//EN"
 "http://www.w3.org/TR/2001/REC-SVG-20010904/DTD/svg10.dtd">
<svg version="1.0" xmlns="http://www.w3.org/2000/svg"
 width="512.000000pt" height="512.000000pt" viewBox="0 0 512.000000 512.000000"
 preserveAspectRatio="xMidYMid meet">
<metadata>
Created by potrace 1.16, written by Peter Selinger 2001-2019
</metadata>
<g transform="translate(0.000000,512.000000) scale(0.100000,-0.100000)"
fill="#000000" stroke="none">
<path d="M2450 4112 l0 -109 128 -7 c841 -44 1645 -509 2257 -1305 44 -57 89
-115 100 -128 l21 -25 82 58 c45 32 82 63 82 69 0 6 -34 55 -75 110 -565 749
-1296 1242 -2062 1389 -131 25 -263 40 -435 51 l-98 6 0 -109z"/>
<path d="M2205 3843 c-328 -40 -588 -116 -870 -253 -419 -203 -811 -527 -1151
-951 -96 -119 -184 -244 -184 -259 0 -16 84 -136 175 -250 257 -321 529 -573
834 -775 1084 -717 2379 -570 3360 380 189 183 379 406 510 598 l32 47 -51 74
c-168 243 -493 593 -715 770 -306 244 -648 426 -996 531 -114 34 -301 71 -421
84 -90 10 -454 13 -523 4z m375 -253 c196 -24 433 -117 575 -224 202 -154 364
-379 440 -611 79 -244 75 -546 -11 -787 -123 -344 -409 -626 -754 -743 -132
-45 -225 -59 -385 -60 -166 0 -242 11 -384 57 -184 59 -336 152 -477 292 -421
422 -480 1071 -142 1563 247 360 704 566 1138 513z m1005 -253 c344 -185 721
-517 999 -880 l58 -76 -23 -33 c-122 -171 -407 -471 -592 -622 -139 -114 -353
-257 -487 -326 l-105 -53 71 75 c262 281 396 677 363 1074 -26 329 -156 622
-378 857 -64 67 -60 66 94 -16z m-2218 -16 c-119 -129 -227 -319 -285 -501
-52 -163 -66 -256 -66 -445 1 -183 19 -300 70 -454 52 -155 164 -351 265 -466
80 -90 79 -92 -6 -45 -389 211 -710 493 -1044 916 l-41 52 57 73 c210 275 503
557 768 741 93 65 326 200 333 193 3 -2 -20 -31 -51 -64z"/>
</g>
</svg>
